<svg width="25" height="25" viewBox="0 0 25 25" fill="none" xmlns="http://www.w3.org/2000/svg">
<circle cx="12.5" cy="12.5" r="12.5" fill="#2978AD"/>
<g clip-path="url(#clip0_1292_22)">
<path d="M9.09351 10.843L6.85924 12.5275L9.09351 14.2119C9.16761 14.2669 9.22895 14.3346 9.274 14.4111C9.31905 14.4876 9.34692 14.5714 9.356 14.6577C9.36507 14.744 9.35518 14.831 9.32688 14.9138C9.29858 14.9967 9.25245 15.0736 9.19113 15.1402C9.12982 15.2068 9.05454 15.2618 8.96963 15.3019C8.88472 15.3421 8.79187 15.3666 8.69643 15.3741C8.60099 15.3816 8.50485 15.372 8.41355 15.3457C8.32225 15.3195 8.2376 15.2771 8.16448 15.2211L5.26125 13.032C5.17949 12.9704 5.1137 12.8933 5.06855 12.8061C5.0234 12.7189 5 12.6238 5 12.5275C5 12.4312 5.0234 12.3361 5.06855 12.2489C5.1137 12.1617 5.17949 12.0845 5.26125 12.0229L8.16448 9.83383C8.31259 9.72401 8.50266 9.67159 8.69329 9.68801C8.88392 9.70442 9.05966 9.78833 9.18222 9.92146C9.30478 10.0546 9.36422 10.2261 9.34761 10.3988C9.33099 10.5714 9.23966 10.731 9.09351 10.843ZM19.7387 12.0229L16.8354 9.83383C16.7623 9.77782 16.6777 9.73547 16.5864 9.7092C16.4951 9.68294 16.3989 9.67329 16.3035 9.68081C16.2081 9.68833 16.1152 9.71288 16.0303 9.75303C15.9454 9.79317 15.8701 9.84814 15.8088 9.91474C15.7475 9.98134 15.7013 10.0583 15.673 10.1411C15.6448 10.2239 15.6349 10.311 15.6439 10.3973C15.653 10.4836 15.6809 10.5674 15.7259 10.6439C15.771 10.7204 15.8323 10.788 15.9064 10.843L18.1407 12.5275L15.9064 14.2119C15.8323 14.2669 15.771 14.3346 15.7259 14.4111C15.6809 14.4876 15.653 14.5714 15.6439 14.6577C15.6349 14.744 15.6448 14.831 15.673 14.9138C15.7013 14.9967 15.7475 15.0736 15.8088 15.1402C15.8701 15.2068 15.9454 15.2618 16.0303 15.3019C16.1152 15.3421 16.2081 15.3666 16.3035 15.3741C16.3989 15.3816 16.4951 15.372 16.5864 15.3457C16.6777 15.3195 16.7623 15.2771 16.8354 15.2211L19.7387 13.032C19.8204 12.9704 19.8862 12.8933 19.9314 12.8061C19.9765 12.7189 19.9999 12.6238 19.9999 12.5275C19.9999 12.4312 19.9765 12.3361 19.9314 12.2489C19.8862 12.1617 19.8204 12.0845 19.7387 12.0229ZM14.6834 7.09423C14.5938 7.06475 14.4987 7.05153 14.4035 7.05532C14.3082 7.05912 14.2147 7.07985 14.1283 7.11634C14.042 7.15283 13.9644 7.20436 13.9 7.26799C13.8356 7.33161 13.7857 7.40609 13.7532 7.48717L9.88222 17.119C9.81661 17.2827 9.82549 17.4632 9.90692 17.6209C9.98836 17.7786 10.1357 17.9007 10.3165 17.9602C10.3959 17.9867 10.4799 18.0002 10.5645 18.0001C10.7135 18.0001 10.8589 17.9586 10.981 17.8813C11.103 17.804 11.1958 17.6945 11.2467 17.5678L15.1177 7.93592C15.1503 7.85486 15.1649 7.76878 15.1607 7.6826C15.1565 7.59643 15.1336 7.51184 15.0933 7.43368C15.0529 7.35552 14.996 7.28531 14.9257 7.22707C14.8554 7.16882 14.773 7.12369 14.6834 7.09423Z" fill="white"/>
</g>
<defs>
<clipPath id="clip0_1292_22">
<rect width="15" height="11" fill="white" transform="translate(5 7)"/>
</clipPath>
</defs>
</svg>
